<svg xmlns="http://www.w3.org/2000/svg" xmlns:xlink="http://www.w3.org/1999/xlink" width="529" zoomAndPan="magnify" viewBox="0 0 396.75 396.749985" height="529" preserveAspectRatio="xMidYMid meet" version="1.0"><defs><clipPath id="94896cdf05"><path d="M 0 0 L 396.5 0 L 396.5 396.5 L 0 396.5 Z M 0 0 " clip-rule="nonzero"/></clipPath><clipPath id="fccad2d78b"><path d="M 0 0 L 396.398438 0 L 396.398438 396.398438 L 0 396.398438 Z M 0 0 " clip-rule="nonzero"/></clipPath><clipPath id="713e3f3073"><path d="M 50 231 L 347 231 L 347 396.398438 L 50 396.398438 Z M 50 231 " clip-rule="nonzero"/></clipPath><clipPath id="856499ba07"><rect x="0" width="397" y="0" height="397"/></clipPath></defs><g clip-path="url(#94896cdf05)"><g><g clip-path="url(#856499ba07)"><g clip-path="url(#fccad2d78b)"><path fill="#b3b3b3" d="M 396.417969 198.207031 C 396.417969 248.917969 377.390625 295.164062 346.054688 330.214844 C 309.769531 370.847656 256.980469 396.414062 198.210938 396.414062 C 139.445312 396.414062 86.636719 370.847656 50.367188 330.214844 C 19.035156 295.164062 0.0078125 248.917969 0.0078125 198.207031 C 0.0078125 88.75 88.734375 0.00390625 198.210938 0.00390625 C 307.671875 0.00390625 396.417969 88.75 396.417969 198.207031 " fill-opacity="1" fill-rule="nonzero"/></g><path fill="#f2f2f2" d="M 198.210938 234.71875 C 234.132812 234.71875 266.855469 194.074219 266.855469 149.449219 C 266.855469 107.285156 258.699219 65.589844 198.210938 65.589844 C 137.714844 65.589844 129.558594 107.285156 129.558594 149.449219 C 129.558594 194.074219 162.28125 234.71875 198.210938 234.71875 " fill-opacity="1" fill-rule="nonzero"/><g clip-path="url(#713e3f3073)"><path fill="#f2f2f2" d="M 346.054688 330.214844 C 309.769531 370.847656 256.980469 396.414062 198.210938 396.414062 C 139.445312 396.414062 86.636719 370.847656 50.367188 330.214844 C 49.738281 305.734375 66.042969 249.015625 149.1875 231.558594 C 163.410156 246.074219 180.917969 254.285156 198.210938 254.285156 C 215.503906 254.285156 232.996094 246.074219 247.21875 231.558594 C 330.382812 249.015625 346.667969 305.734375 346.054688 330.214844 " fill-opacity="1" fill-rule="nonzero"/></g></g></g></g></svg>